<?xml version="1.0" encoding="UTF-8" standalone="no"?><svg xmlns="http://www.w3.org/2000/svg" height="48" viewBox="0 -960 960 960" width="48"><path d="m179-483 164 165q13 14 12 32.5T340.5-254Q328-239 309-239.5T277-254L80-449q-6.09-6.095-10.546-15.373Q65-473.651 65-482.111q0-8.46 4.454-17.66Q73.91-508.971 80-515l200-200q12.4-12 31.7-12 19.3 0 32.3 12 14 13 14 32.8 0 19.8-14 33.2L179-483Zm604 2L618-646q-14-13-13.5-31.5t14-32.5q14.5-15 33.5-14.5t32 14.5l196 195q6.091 6.095 10.545 15.373Q895-490.349 895-481.889q0 8.46-4.455 17.66-4.454 9.2-10.545 15.229L680-249q-13.455 13-31.727 13Q630-236 617-250q-15-13.133-14.5-32.567Q603-302 617-315l166-166Z" fill="#e1e8f2"/></svg>