<?xml version="1.0" encoding="UTF-8" standalone="no"?><svg width="760" height="131" viewBox="0 0 760 131" fill="none" xmlns="http://www.w3.org/2000/svg">
<path d="M0 36C0 16.1178 16.1178 0 36 0H92C111.882 0 128 16.1178 128 36V92C128 111.882 111.882 128 92 128H36C16.1178 128 0 111.882 0 92V36Z" fill="#232931"/>
<path d="M49.3063 101.588C48.0515 101.335 47.1485 100.848 46.5973 100.128C46.1465 99.3409 45.7963 98.4869 45.5466 97.5661L33.6882 34.591C33.5883 34.2226 33.5805 33.8293 33.6648 33.4111C33.8165 32.6582 34.1939 32.0814 34.7969 31.6806C35.5005 31.213 36.2287 31.0551 36.9815 31.2068L49.1529 33.6593C50.2404 33.8784 50.9761 34.3313 51.36 35.018C51.8276 35.7216 52.0945 36.3412 52.1606 36.8768L59.251 81.3944L83.0283 43.0965C83.3803 42.6451 83.8663 42.1772 84.4862 41.6928C85.1898 41.2252 86.0435 41.0926 87.0473 41.2948L99.2187 43.7473C99.9716 43.899 100.54 44.3182 100.924 45.0049C101.408 45.6248 101.575 46.3112 101.423 47.0641C101.339 47.4823 101.221 47.8503 101.07 48.1681L65.6231 101.611C65.12 102.38 64.4663 103.032 63.6623 103.567C62.8751 104.017 61.8541 104.116 60.5993 103.863L49.3063 101.588Z" fill="#E1E8F2"/>
<path d="M218.564 26.616L190.916 102H172.556L144.908 26.616H161.108L181.844 86.556L202.472 26.616H218.564Z" fill="#E1E8F2"/>
<path d="M282.602 49.944C282.602 53.976 281.63 57.756 279.686 61.284C277.814 64.812 274.826 67.656 270.722 69.816C266.69 71.976 261.578 73.056 255.386 73.056H242.75V102H227.63V26.616H255.386C261.218 26.616 266.186 27.624 270.29 29.64C274.394 31.656 277.454 34.428 279.47 37.956C281.558 41.484 282.602 45.48 282.602 49.944ZM254.738 60.852C258.914 60.852 262.01 59.916 264.026 58.044C266.042 56.1 267.05 53.4 267.05 49.944C267.05 42.6 262.946 38.928 254.738 38.928H242.75V60.852H254.738Z" fill="#E1E8F2"/>
<path d="M332.217 102L315.585 72.624H308.457V102H293.337V26.616H321.633C327.465 26.616 332.433 27.66 336.537 29.748C340.641 31.764 343.701 34.536 345.717 38.064C347.805 41.52 348.849 45.408 348.849 49.728C348.849 54.696 347.409 59.196 344.529 63.228C341.649 67.188 337.365 69.924 331.677 71.436L349.713 102H332.217ZM308.457 61.284H321.093C325.197 61.284 328.257 60.312 330.273 58.368C332.289 56.352 333.297 53.58 333.297 50.052C333.297 46.596 332.289 43.932 330.273 42.06C328.257 40.116 325.197 39.144 321.093 39.144H308.457V61.284Z" fill="#E1E8F2"/>
<path d="M443.231 49.944C443.231 53.976 442.259 57.756 440.315 61.284C438.443 64.812 435.455 67.656 431.351 69.816C427.319 71.976 422.207 73.056 416.015 73.056H403.379V102H388.259V26.616H416.015C421.847 26.616 426.815 27.624 430.919 29.64C435.023 31.656 438.083 34.428 440.099 37.956C442.187 41.484 443.231 45.48 443.231 49.944ZM415.367 60.852C419.543 60.852 422.639 59.916 424.655 58.044C426.671 56.1 427.679 53.4 427.679 49.944C427.679 42.6 423.575 38.928 415.367 38.928H403.379V60.852H415.367Z" fill="#E1E8F2"/>
<path d="M469.086 51.456C471.03 48.288 473.55 45.804 476.646 44.004C479.814 42.204 483.414 41.304 487.446 41.304V57.18H483.45C478.698 57.18 475.098 58.296 472.65 60.528C470.274 62.76 469.086 66.648 469.086 72.192V102H453.966V42.168H469.086V51.456Z" fill="#E1E8F2"/>
<path d="M524.198 102.972C518.438 102.972 513.254 101.712 508.646 99.192C504.038 96.6 500.402 92.964 497.738 88.284C495.146 83.604 493.85 78.204 493.85 72.084C493.85 65.964 495.182 60.564 497.846 55.884C500.582 51.204 504.29 47.604 508.97 45.084C513.65 42.492 518.87 41.196 524.63 41.196C530.39 41.196 535.61 42.492 540.29 45.084C544.97 47.604 548.642 51.204 551.306 55.884C554.042 60.564 555.41 65.964 555.41 72.084C555.41 78.204 554.006 83.604 551.198 88.284C548.462 92.964 544.718 96.6 539.966 99.192C535.286 101.712 530.03 102.972 524.198 102.972ZM524.198 89.796C526.934 89.796 529.49 89.148 531.866 87.852C534.314 86.484 536.258 84.468 537.698 81.804C539.138 79.14 539.858 75.9 539.858 72.084C539.858 66.396 538.346 62.04 535.322 59.016C532.37 55.92 528.734 54.372 524.414 54.372C520.094 54.372 516.458 55.92 513.506 59.016C510.626 62.04 509.186 66.396 509.186 72.084C509.186 77.772 510.59 82.164 513.398 85.26C516.278 88.284 519.878 89.796 524.198 89.796Z" fill="#E1E8F2"/>
<path d="M574.169 35.04C571.433 35.04 569.165 34.212 567.365 32.556C565.637 30.828 564.773 28.704 564.773 26.184C564.773 23.664 565.637 21.576 567.365 19.92C569.165 18.192 571.433 17.328 574.169 17.328C576.833 17.328 579.029 18.192 580.757 19.92C582.485 21.576 583.349 23.664 583.349 26.184C583.349 28.704 582.485 30.828 580.757 32.556C579.029 34.212 576.833 35.04 574.169 35.04ZM581.621 111.828C581.621 118.452 579.965 123.204 576.653 126.084C573.413 129.036 568.733 130.512 562.613 130.512H555.917V117.66H560.237C562.541 117.66 564.161 117.192 565.097 116.256C566.033 115.392 566.501 113.952 566.501 111.936V42.168H581.621V111.828Z" fill="#E1E8F2"/>
<path d="M652.179 70.788C652.179 72.948 652.035 74.892 651.747 76.62H608.007C608.367 80.94 609.879 84.324 612.543 86.772C615.207 89.22 618.483 90.444 622.371 90.444C627.987 90.444 631.983 88.032 634.359 83.208H650.667C648.939 88.968 645.627 93.72 640.731 97.464C635.835 101.136 629.823 102.972 622.695 102.972C616.935 102.972 611.751 101.712 607.143 99.192C602.607 96.6 599.043 92.964 596.451 88.284C593.931 83.604 592.671 78.204 592.671 72.084C592.671 65.892 593.931 60.456 596.451 55.776C598.971 51.096 602.499 47.496 607.035 44.976C611.571 42.456 616.791 41.196 622.695 41.196C628.383 41.196 633.459 42.42 637.923 44.868C642.459 47.316 645.951 50.808 648.399 55.344C650.919 59.808 652.179 64.956 652.179 70.788ZM636.519 66.468C636.447 62.58 635.043 59.484 632.307 57.18C629.571 54.804 626.223 53.616 622.263 53.616C618.519 53.616 615.351 54.768 612.759 57.072C610.239 59.304 608.691 62.436 608.115 66.468H636.519Z" fill="#E1E8F2"/>
<path d="M659.328 72.084C659.328 65.892 660.588 60.492 663.108 55.884C665.628 51.204 669.12 47.604 673.584 45.084C678.048 42.492 683.16 41.196 688.92 41.196C696.336 41.196 702.456 43.068 707.28 46.812C712.176 50.484 715.452 55.668 717.108 62.364H700.8C699.936 59.772 698.46 57.756 696.372 56.316C694.356 54.804 691.836 54.048 688.812 54.048C684.492 54.048 681.072 55.632 678.552 58.8C676.032 61.896 674.772 66.324 674.772 72.084C674.772 77.772 676.032 82.2 678.552 85.368C681.072 88.464 684.492 90.012 688.812 90.012C694.932 90.012 698.928 87.276 700.8 81.804H717.108C715.452 88.284 712.176 93.432 707.28 97.248C702.384 101.064 696.264 102.972 688.92 102.972C683.16 102.972 678.048 101.712 673.584 99.192C669.12 96.6 665.628 93 663.108 88.392C660.588 83.712 659.328 78.276 659.328 72.084Z" fill="#E1E8F2"/>
<path d="M745.788 54.588V83.532C745.788 85.548 746.256 87.024 747.192 87.96C748.2 88.824 749.856 89.256 752.16 89.256H759.18V102H749.676C736.932 102 730.56 95.808 730.56 83.424V54.588H723.432V42.168H730.56V27.372H745.788V42.168H759.18V54.588H745.788Z" fill="#E1E8F2"/>
</svg>