<svg width="128" height="128" viewBox="0 0 128 128" fill="none" xmlns="http://www.w3.org/2000/svg">
<path d="M0 36C0 16.1178 16.1178 0 36 0H92C111.882 0 128 16.1178 128 36V92C128 111.882 111.882 128 92 128H36C16.1178 128 0 111.882 0 92V36Z" fill="#232931"/>
<path d="M49.3063 101.588C48.0515 101.335 47.1485 100.848 46.5973 100.128C46.1465 99.3409 45.7963 98.4869 45.5466 97.5661L33.6882 34.591C33.5883 34.2226 33.5805 33.8293 33.6648 33.4111C33.8165 32.6582 34.1939 32.0814 34.7969 31.6806C35.5005 31.213 36.2287 31.0551 36.9815 31.2068L49.1529 33.6593C50.2404 33.8784 50.9761 34.3313 51.36 35.018C51.8276 35.7216 52.0945 36.3412 52.1606 36.8768L59.251 81.3944L83.0283 43.0965C83.3803 42.6451 83.8663 42.1772 84.4862 41.6928C85.1898 41.2252 86.0435 41.0926 87.0473 41.2948L99.2187 43.7473C99.9716 43.899 100.54 44.3182 100.924 45.0049C101.408 45.6248 101.575 46.3112 101.423 47.0641C101.339 47.4823 101.221 47.8503 101.07 48.1681L65.6231 101.611C65.12 102.38 64.4663 103.032 63.6623 103.567C62.8751 104.017 61.8541 104.116 60.5993 103.863L49.3063 101.588Z" fill="#E1E8F2"/>
</svg>