<?xml version="1.0" encoding="UTF-8" standalone="no"?><svg xmlns="http://www.w3.org/2000/svg" height="48" viewBox="0 -960 960 960" width="48"><path d="M434-215v-120q0-18.775 13.36-31.888Q460.719-380 479.86-380q20.14 0 32.64 13.112Q525-353.775 525-335v120l42-40q12.565-12 32.065-12T632-254.897q13 13.539 13 33.5 0 19.962-13 32.397L513-70q-6.333 5.818-15.522 9.91Q488.289-56 479.644-56 471-56 462.05-60.045 453.1-64.091 448-70L328-189q-13-13.4-13-33.2 0-19.8 14-32.8 12-12 31.567-12 19.566 0 33.433 12l40 40ZM215-434l35 36q13 12.739 13 32.37Q263-346 248.897-333q-12.104 12-32.283 12-20.179 0-32.614-12L70-448q-5.91-5.167-9.955-14.394Q56-471.622 56-480.311 56-489 60.09-497.9q4.092-8.9 9.91-15.1l115-115q12.733-13 32.667-13Q237.6-641 251-628q12 13.4 12 32.833 0 19.434-12 33.167l-36 37h120q18.775 0 31.888 12.675Q380-499.649 380-479.509q0 19.141-13.112 32.325Q353.775-434 335-434H215Zm531 0H627q-19.75 0-32.875-13.36Q581-460.719 581-479.86q0-20.14 13.125-32.64T627-525h119l-35-37q-13-12.565-13-32.065T711.103-627q12.104-13 32.066-13 19.961 0 33.831 13l114 114q4.909 6.327 9.455 15.508Q905-488.311 905-479.676q0 8.636-4.545 17.606Q895.909-453.1 891-448L776-333q-13.364 13-32.682 13T711-333.5q-14-12.5-14-32.067 0-19.566 14-33.433l35-35ZM434-746l-35 35q-12.818 13-32.409 13T333-711q-13-13-13-32.267 0-19.266 14-33.733l114-114q5.167-4.909 14.348-9.455Q471.529-905 480.164-905q8.636 0 17.606 4.545 8.97 4.546 15.23 9.455l114 114q13 13.727 13 33.864Q640-723 627-711q-13.4 13-32.833 13-19.434 0-33.167-13l-36-35v119q0 19.75-12.675 32.875Q499.649-581 479.509-581q-19.141 0-32.325-13.125Q434-607.25 434-627v-119Z" fill="#232931"/></svg>